<svg width="38" height="38" viewBox="0 0 38 38" fill="none" xmlns="http://www.w3.org/2000/svg">
<path d="M30.1253 10.035C25.1177 11.1348 10.1377 14.9408 7.47316 15.6161L4.20516 12.114C4.06076 11.9567 3.85176 11.8746 3.63896 11.8925L1.61242 12.0141C1.50925 12.023 1.40916 12.0538 1.31876 12.1043C1.22836 12.1548 1.14971 12.2239 1.08802 12.3071C1.02648 12.3914 0.984069 12.4881 0.963725 12.5905C0.943381 12.6928 0.945596 12.7984 0.970218 12.8999L2.39142 18.5896C2.66502 19.6821 3.44364 20.5504 4.46774 20.9152C5.37708 21.2363 6.89328 21.562 8.9297 21.2686C11.5593 20.8981 15.5558 20.2175 17.5511 19.8732C15.5001 20.2237 24.0001 18.2568 17.5511 19.8732C18.907 19.5472 33.5305 16.0219 36.1556 14.4351C36.375 14.3016 36.5644 14.1242 36.7119 13.9139C36.8594 13.7037 36.9617 13.4651 37.0125 13.2134C37.0644 12.9592 37.0635 12.6971 37.01 12.4433C36.9564 12.1895 36.8514 11.9494 36.7012 11.7378C35.9713 10.7266 34.1514 9.15724 30.1253 10.035Z" fill="#2C83FC"/>
<path d="M20.8585 27.0525C20.3606 28.0854 19.7073 28.8881 18.8986 29.4604C18.102 30.0385 17.2384 30.3253 16.3081 30.3209C15.646 30.3127 15.0087 30.1609 14.3961 29.8657C13.5794 29.472 12.8849 28.8708 12.3125 28.0621L13.5543 25.4858C14.0172 26.1529 14.5429 26.6283 15.1315 26.912C15.3717 27.0278 15.6084 27.1049 15.8415 27.1432C16.6602 27.2566 17.3068 26.8208 17.7815 25.8359L20.4474 20.3048L24.1843 20.1522L20.8585 27.0525Z" fill="white"/>
<path d="M18.46 8.86C18.7667 9.16667 19.1667 9.32 19.66 9.32C20.1533 9.32 20.5467 9.16667 20.84 8.86C21.1467 8.55333 21.3 8.14667 21.3 7.64C21.3 7.14667 21.1467 6.75333 20.84 6.46C20.5467 6.15333 20.1533 6 19.66 6C19.1667 6 18.7667 6.15333 18.46 6.46C18.1533 6.75333 18 7.14667 18 7.64C18 8.13333 18.1533 8.54 18.46 8.86Z" fill="white"/>
<path d="M22.06 8.86C22.3667 9.16667 22.7667 9.32 23.26 9.32C23.7533 9.32 24.1467 9.16667 24.44 8.86C24.7467 8.55333 24.9 8.14667 24.9 7.64C24.9 7.14667 24.7467 6.75333 24.44 6.46C24.1467 6.15333 23.7533 6 23.26 6C22.7667 6 22.3667 6.15333 22.06 6.46C21.7533 6.75333 21.6 7.14667 21.6 7.64C21.6 8.13333 21.7533 8.54 22.06 8.86Z" fill="white"/>
</svg>
